<svg xmlns="http://www.w3.org/2000/svg" version="1.1" xmlns:xlink="http://www.w3.org/1999/xlink" xmlns:svgjs="http://svgjs.dev/svgjs" width="100%" height="100%" viewBox="0 0 1000 600"><rect width="1000" height="600" x="0" y="0" fill="#a128e2"/><g><rect width="333.3333333333333" height="333.3333333333333" rx="13.333333333333334" ry="13.333333333333334" y="93.73218719617464" fill="#f6b042" transform="matrix(1.748008276295696,0,0,1.748008276295696,0,-155.17934499164642)" x="71.50995635986328"/><path d="M161.12975446797128 293.3322345026732L161.12975446797128 293.3322345026732Q160.11337948601084 276.053859809346 145.88412973856492 266.4829953958854L145.88412973856492 266.4829953958854Q139.39062290937335 262.02223853061463 137.8660604364327 262.02223853061463Q136.3414979634921 262.02223853061463 134.59107438344913 262.9256829590239Q132.86888344179397 263.857360025821 130.3279459868929 266.2006690120075Q127.78700853199186 268.51574535980626 125.55663009935648 271.79073141278985L125.55663009935648 271.79073141278985Q119.85363714502299 279.49824169265634 119.85363714502299 293.13460603395873L119.85363714502299 293.13460603395873Q119.85363714502299 299.6281128631503 121.88638710894384 306.54510926815874L121.88638710894384 306.54510926815874Q126.17774814388784 319.7579840336442 139.98350831551693 319.7579840336442L139.98350831551693 319.7579840336442Q150.96600464836706 319.7579840336442 156.04787955816914 311.203494602144Q161.12975446797128 302.67723780903157 161.12975446797128 293.3322345026732ZM146.90050472052536 238.02449590099354Q151.98237963032744 234.58011401768323 154.21275806296285 227.6631176126748Q156.4431364955982 220.74612120766636 156.4431364955982 216.0877358736811Q156.4431364955982 211.40111790130806 154.9185740226576 207.4485485270175Q153.39401154971694 203.46774651433918 151.1636331170816 201.85848612623516L151.1636331170816 201.85848612623516Q146.90050472052536 198.18824313582252 141.31044231974303 197.99061466710802Q135.7203799189607 197.7929861983935 131.76781054467017 199.82573616231434Q127.78700853199186 201.85848612623516 126.17774814388784 205.10523954083098L126.17774814388784 205.10523954083098Q123.52388013543563 210.38474291934762 123.52388013543563 215.46661782914973L123.52388013543563 215.46661782914973Q123.52388013543563 224.416364198079 132.2759980356504 231.64391962535313Q140.99988329747737 238.84324241423946 144.8677547566045 238.84324241423946L144.8677547566045 238.84324241423946Q145.88412973856492 238.84324241423946 146.90050472052536 238.02449590099354L146.90050472052536 238.02449590099354ZM138.3742479274129 333.98723378109014L138.3742479274129 333.98723378109014Q118.244376756919 333.98723378109014 105.11619990659686 323.90818187664934Q92.01625569466253 313.8573626105963 92.01625569466253 295.5626129353086L92.01625569466253 295.5626129353086Q92.01625569466253 286.8104950350939 94.95245008699264 279.1876826703907Q97.91687711771054 271.5648703056875 102.18000551426675 266.90648497170224L102.18000551426675 266.90648497170224Q110.50863383866466 257.956738602773 118.244376756919 254.7099851881772L118.244376756919 254.7099851881772L121.09587323408573 253.2701206303999Q122.30987668476068 252.87486369297085 122.30987668476068 252.05611717972494L122.30987668476068 252.05611717972494L121.29350170280026 250.84211372905003Q99.75199861291685 241.89236736012072 99.75199861291685 220.74612120766636L99.75199861291685 220.74612120766636Q99.75199861291685 204.08886455887057 112.0331963116053 194.94148972122673Q124.34262664868152 185.79411488358295 141.42337287329417 185.79411488358295L141.42337287329417 185.79411488358295Q148.73562621573168 185.79411488358295 156.04787955816914 187.71393429395263Q163.36013290060663 189.66198634271012 168.04675087297971 192.51348281987686Q172.705136206965 195.33674665865578 176.26244864382647 201.15267016654045Q179.81976108068793 206.9403610360373 179.81976108068793 215.46661782914973Q179.81976108068793 224.02110726064996 174.5402577021713 232.34973558504788Q169.26075432365465 240.67836390944575 161.12975446797128 245.95786728796242L161.12975446797128 245.95786728796242Q159.49226144147946 246.77661380120833 159.49226144147946 247.28480129218855Q159.49226144147946 247.7929887831687 160.73449753054223 248.80936376512915L160.73449753054223 248.80936376512915Q163.98125094513802 250.02336721580411 169.14782377010349 254.00416922848245Q174.34262923345676 257.956738602773 177.70231320160372 262.1351690841658Q181.06199716975067 266.28536692717086 183.88526100852962 273.3999918008938Q186.7367574856964 280.5146166746168 186.7367574856964 286.0199811602357Q186.7367574856964 291.4971130074669 186.34150054826733 295.16735599787955Q185.91801097245047 298.8093663499044 183.29237560238602 306.3474807994442Q180.6385075939338 313.8573626105963 175.98012225994856 319.4474250113785Q171.2935042875755 325.0374874121609 161.52501140540033 329.4982442774317Q151.78475116161292 333.98723378109014 138.3742479274129 333.98723378109014ZM265.6187491411803 259.87655801314264Q265.6187491411803 199.20461811778296 244.16194396646023 199.20461811778296Q222.733371430128 199.20461811778296 222.733371430128 259.87655801314264Q222.733371430128 320.5767305468902 244.16194396646023 320.5767305468902Q265.6187491411803 320.5767305468902 265.6187491411803 259.87655801314264ZM275.3590093849677 322.6941784259744Q270.27713447516555 328.2842408267567 262.3719957265845 331.333365772638Q254.43862433961567 334.3824907185192 243.14556898449985 334.3824907185192Q231.88074626777177 334.3824907185192 222.733371430128 330.00643176841186Q213.5859965924842 325.65860545669227 208.58881959784543 319.0521680739495Q203.6198752415945 312.4457306912068 200.57075029571325 302.47960934031704Q197.52162534983196 292.51348798942735 196.70287883658605 283.56374162049804Q195.88413232334017 274.6139952515688 195.88413232334017 262.53042602159485Q195.88413232334017 250.44685679162097 196.9005073053006 240.2831069720167Q197.91688228726105 230.11935715241248 200.9660072331423 219.44741984182804Q204.01513217902357 208.7754825312436 209.20993764237687 201.66085765752064Q214.3765104673423 194.54623278379768 223.32625683627157 189.9725453649758Q232.27600320520088 185.3988579461539 243.76668702903117 185.3988579461539Q255.25737085286153 185.3988579461539 263.58599917725945 188.8432398294642Q271.9146275016574 192.28762171277452 276.9965024114594 198.69643062680277Q282.0783773212616 205.10523954083098 285.32513073585733 212.0222359458394Q288.5718841504532 218.93923235084782 290.0117487082304 228.28423565720618L290.0117487082304 228.28423565720618Q292.4397556095803 244.12274579275612 292.4397556095803 256.62980459854685Q292.4397556095803 269.1368634043376 291.73393964988554 277.267863260021Q291.0281236901908 285.3988631157044 289.30593274853567 294.433307399797Q287.5555091684928 303.4959843222775 283.99819673163125 310.30005017373475Q280.4408842947698 317.10411602519207 275.3590093849677 322.6941784259744ZM317.96206071214203 186.69755931199222Q319.4866231850827 187.00811833425792 321.51937314900357 188.8432398294642Q323.5521231129244 190.67836132467053 323.5521231129244 195.44967721220695Q323.5521231129244 200.2209930997434 321.71700161771804 207.02505895120066Q319.88188012251175 213.85735744104574 317.84913015859087 217.30173932435605L317.84913015859087 217.30173932435605L316.0140086633846 220.9719823147687Q314.2071198065661 224.02110726064996 313.3883732933201 224.02110726064996L313.3883732933201 224.02110726064996L312.9648837175033 224.02110726064996Q311.15799486068477 224.02110726064996 311.15799486068477 222.58124270287266L311.15799486068477 222.58124270287266Q311.15799486068477 209.5659964061017 306.0761199508827 197.59535772967897L306.0761199508827 197.59535772967897Q304.43862692439086 193.7274862705518 304.43862692439086 193.30399669473496L304.43862692439086 193.30399669473496Q304.43862692439086 190.2548717488537 307.99593936125234 188.44798289203516Q311.5532517981138 186.61286139682886 313.98125869946375 186.4999308432777Q316.43749823920143 186.41523292811434 317.96206071214203 186.69755931199222ZM384.3369935618353 303.29835585356295L384.3369935618353 303.29835585356295Q384.3369935618353 312.02224111539 380.9773095936883 318.5439805829693Q377.6176256255413 325.0374874121609 373.35449722898505 328.0866123580422Q369.09136883242894 331.1357373039234 363.1907474093809 332.9708587991298L363.1907474093809 332.9708587991298Q355.45500449112654 335.39886570047963 349.15912613064944 335.39886570047963L349.15912613064944 335.39886570047963Q335.94625136516396 335.39886570047963 327.19413346494923 330.2322928755142Q318.47024820312225 325.0374874121609 318.47024820312225 313.6597341418817L318.47024820312225 313.6597341418817Q318.47024820312225 306.9403662055878 322.1122585551471 302.67723780903157L322.1122585551471 302.67723780903157Q327.81525150948056 296.3813594485545 335.7486228964495 296.3813594485545L335.7486228964495 296.3813594485545Q338.1766297977993 296.3813594485545 338.1766297977993 298.61173788118987L338.1766297977993 298.61173788118987Q338.1766297977993 298.8093663499044 337.2731853693901 301.7737933806223Q336.341508302593 304.7099877729524 336.341508302593 309.17074463822314Q336.341508302593 313.6597341418817 339.8988207394545 317.10411602519207Q343.456133176316 320.5767305468902 348.53800808611805 320.5767305468902Q353.61988299592025 320.5767305468902 356.66900794180145 318.82630696684726Q359.71813288768277 317.10411602519207 360.96036897674554 314.47848065512767L360.96036897674554 314.47848065512767Q362.7672578335641 310.80823766471497 362.7672578335641 307.5614842501191L362.7672578335641 307.5614842501191Q362.7672578335641 301.6608628270711 356.8948690489038 297.3977344305149Q350.99424762585585 293.13460603395873 343.8796227521329 290.678366494221Q336.7649978784099 288.2503595928711 330.8643764553619 282.54736663853765Q324.9637550323139 276.87260632259193 324.9637550323139 268.31811689109173L324.9637550323139 268.31811689109173Q324.9637550323139 253.69361020621676 334.2240604235089 246.38135686377927Q343.456133176316 239.04087088295398 359.3228759502537 239.04087088295398L359.3228759502537 239.04087088295398Q366.2398723552621 239.04087088295398 373.86268471996533 240.98892293171144Q381.48549708466845 242.90874234208115 381.48549708466845 247.48242976090302Q381.48549708466845 252.05611717972494 379.96093461172785 255.9239886388521Q378.43637213878725 259.7918600979793 376.2059937061518 259.7918600979793L376.2059937061518 259.7918600979793Q374.96375761708913 259.7918600979793 374.5685006796601 258.8601830311822Q374.173243742231 257.956738602773 373.1568687602706 256.742735152098Q372.14049377831014 255.52873170142306 368.272622319183 253.5806796526656Q364.4047508600558 251.66086024229588 361.6661849364403 251.66086024229588Q358.92761901282466 251.66086024229588 357.9959419460276 251.74555815745924Q357.09249751761837 251.85848871101047 354.862119084983 252.36667620199063Q352.6035080139598 252.87486369297085 350.79661915714127 253.8912386749313L350.79661915714127 253.8912386749313Q346.11000118476824 256.5451066833835 346.11000118476824 261.6269815931856L346.11000118476824 261.6269815931856Q346.11000118476824 264.87373500778136 347.52163310415773 266.398297480722Q348.96149766193497 267.9228599536627 349.7802441751808 268.74160646690854Q350.57075805003893 269.53212034176664 352.6035080139598 270.66142587727825Q354.6362579778807 271.79073141278985 355.45500449112654 272.1859883502189Q356.2737510043725 272.58124528764796 359.12524748153913 273.90817929187403Q361.976743958706 275.23511329610017 362.7672578335641 275.6303702335292L362.7672578335641 275.6303702335292Q384.3369935618353 285.79412005313344 384.3369935618353 303.29835585356295Z " fill="#533549" transform="matrix(1.748008276295696,0,0,1.748008276295696,0,-155.17934499164642)"/><path d="M500.5697149213117 188.1699834289089L500.5697149213117 188.1699834289089L500.1848363658487 327.82958192124863Q500.1848363658487 335.39886017868764 491.69184957529853 335.39886017868764L491.69184957529853 335.39886017868764Q488.17662543540314 335.39886017868764 488.17662543540314 332.62773457935407L488.17662543540314 332.62773457935407L488.17662543540314 320.05503510089613L488.56150399086613 215.13714088168294L488.56150399086613 193.71223462757604Q488.56150399086613 185.3988578295753 498.1578093070769 185.3988578295753L498.1578093070769 185.3988578295753L498.72229785508927 185.3988578295753Q499.2611278327375 185.3988578295753 499.9025920918425 186.1172977997729Q500.5697149213117 186.8613963403347 500.5697149213117 188.1699834289089Z " fill="#edbfe7" transform="matrix(1.748008276295696,0,0,1.748008276295696,0,-155.17934499164642)"/></g></svg>