<?xml version="1.0" encoding="iso-8859-1"?>
<!-- Uploaded to: SVG Repo, www.svgrepo.com, Generator: SVG Repo Mixer Tools -->
<svg height="800px" width="800px" version="1.1" id="Layer_1" xmlns="http://www.w3.org/2000/svg" xmlns:xlink="http://www.w3.org/1999/xlink" 
	 viewBox="0 0 512 512" xml:space="preserve">
<path style="fill:#F9D84E;" d="M503.172,406.069H8.828c-4.875,0-8.828-3.953-8.828-8.828V233.122l11.034-60.98h489.931L512,230.498
	v166.743C512,402.116,508.047,406.069,503.172,406.069z"/>
<path id="SVGCleanerId_0" style="fill:#4E5058;" d="M512,238.345h-17.655l-35.31-61.793H52.966l-35.31,61.793H0V114.759
	c0-4.875,3.953-8.828,8.828-8.828h494.345c4.875,0,8.828,3.953,8.828,8.828V238.345z"/>
<path style="fill:#FFC20D;" d="M22.069,388.414c-2.438,0-4.414-1.976-4.414-4.414V105.931H8.828c-4.875,0-8.828,3.953-8.828,8.828
	v282.483c0,4.875,3.953,8.828,8.828,8.828h494.345c4.875,0,8.828-3.953,8.828-8.828v-8.828H22.069z"/>
<g>
	<path id="SVGCleanerId_0_1_" style="fill:#4E5058;" d="M512,238.345h-17.655l-35.31-61.793H52.966l-35.31,61.793H0V114.759
		c0-4.875,3.953-8.828,8.828-8.828h494.345c4.875,0,8.828,3.953,8.828,8.828V238.345z"/>
</g>
<path style="fill:#383A43;" d="M26.483,105.931H8.828c-4.875,0-8.828,3.953-8.828,8.828v123.586h17.655V114.759
	C17.655,109.884,21.608,105.931,26.483,105.931z"/>
<path style="fill:#F9D84E;" d="M300.138,353.103h-88.276c-9.751,0-17.655-7.904-17.655-17.655v-88.276
	c0-9.751,7.904-17.655,17.655-17.655h88.276c9.751,0,17.655,7.904,17.655,17.655v88.276
	C317.793,345.199,309.889,353.103,300.138,353.103z"/>
<path id="SVGCleanerId_1" style="fill:#45CAE0;" d="M317.793,247.172c0-9.751-7.904-17.655-17.655-17.655h-88.276
	c-9.751,0-17.655,7.904-17.655,17.655v18.391h123.586V247.172z"/>
<path style="fill:#E9E9EA;" d="M300.138,353.103h-88.276c-9.751,0-17.655-7.904-17.655-17.655v-88.276
	c0-9.751,7.904-17.655,17.655-17.655h88.276c9.751,0,17.655,7.904,17.655,17.655v88.276
	C317.793,345.199,309.889,353.103,300.138,353.103z"/>
<g>
	<path id="SVGCleanerId_1_1_" style="fill:#45CAE0;" d="M317.793,247.172c0-9.751-7.904-17.655-17.655-17.655h-88.276
		c-9.751,0-17.655,7.904-17.655,17.655v18.391h123.586V247.172z"/>
</g>
<g>
	<path style="fill:#BDBDC0;" d="M282.483,300.138h-52.966c-4.875,0-8.828-3.953-8.828-8.828s3.953-8.828,8.828-8.828h52.966
		c4.875,0,8.828,3.953,8.828,8.828S287.358,300.138,282.483,300.138z"/>
	<path style="fill:#BDBDC0;" d="M282.483,326.621h-52.966c-4.875,0-8.828-3.953-8.828-8.828s3.953-8.828,8.828-8.828h52.966
		c4.875,0,8.828,3.953,8.828,8.828S287.358,326.621,282.483,326.621z"/>
</g>
<g>
	<path style="fill:#E9E9EA;" d="M97.103,370.759h70.621c4.875,0,8.828-3.953,8.828-8.828V220.69c0-4.875-3.953-8.828-8.828-8.828
		H97.103c-24.376,0-44.138,19.762-44.138,44.138v70.621C52.966,350.997,72.727,370.759,97.103,370.759z"/>
	<path style="fill:#E9E9EA;" d="M414.897,370.759h-70.621c-4.875,0-8.828-3.953-8.828-8.828V220.69c0-4.875,3.953-8.828,8.828-8.828
		h70.621c24.376,0,44.138,19.762,44.138,44.138v70.621C459.034,350.997,439.273,370.759,414.897,370.759z"/>
</g>
<path style="fill:#BDBDC0;" d="M406.253,291.31c0-39.002-31.801-70.621-70.805-70.621v141.241
	C374.451,361.931,406.253,330.313,406.253,291.31z"/>
<path style="fill:#64666D;" d="M335.448,353.103c34.127,0,61.977-27.666,61.977-61.793s-27.85-61.793-61.977-61.793
	c-0.062,0,0,0.004,0,0.004v26.483c0,0-0.062-0.004,0-0.004c19.501,0,33.288,15.809,33.288,35.31c0,19.501-13.786,35.31-33.288,35.31
	c-0.062,0,0-0.004,0-0.004v26.483C335.448,353.099,335.386,353.103,335.448,353.103z"/>
<path style="fill:#A7A7AB;" d="M335.448,273.655c9.751,0,17.839,7.904,17.839,17.655c0,9.751-8.088,17.655-17.839,17.655
	c-0.062,0,0.062-0.009,0-0.009v17.66c0.062,0-0.062,0.004,0,0.004c19.501,0,35.495-15.809,35.495-35.31
	c0-19.501-15.993-35.31-35.495-35.31c-0.062,0,0.062,0.004,0,0.004v17.66C335.51,273.664,335.386,273.655,335.448,273.655z"/>
<path style="fill:#BDBDC0;" d="M105.931,291.31c0,39.003,31.801,70.621,70.805,70.621V220.69
	C137.732,220.69,105.931,252.308,105.931,291.31z"/>
<path style="fill:#64666D;" d="M176.552,229.517c-34.207,0-62.023,27.666-62.023,61.793s27.816,61.793,62.023,61.793v-0.004v-26.483
	v0.004c-19.862,0-33.333-15.809-33.333-35.31c0-19.501,13.471-35.31,33.333-35.31v0.004v-26.483V229.517z"/>
<path style="fill:#A7A7AB;" d="M176.736,308.966c-9.751,0-17.839-7.904-17.839-17.655c0-9.751,8.088-17.655,17.839-17.655
	c0.062,0-0.062,0.009,0,0.009v-17.66c-0.062,0,0.062-0.004,0-0.004c-19.501,0-35.495,15.809-35.495,35.31
	c0,19.501,15.993,35.31,35.495,35.31c0.062,0-0.062-0.004,0-0.004v-17.66C176.674,308.957,176.798,308.966,176.736,308.966z"/>
</svg>